<mxfile host="app.diagrams.net" agent="Mozilla/5.0 (Windows NT 10.0; Win64; x64) AppleWebKit/537.36 (KHTML, like Gecko) Chrome/136.0.0.0 Safari/537.36 Edg/136.0.0.0" version="27.0.5">
  <diagram name="Page-1" id="N5Me7Xdx1EmoZ_daKSHJ">
    <mxGraphModel dx="1646" dy="1662" grid="1" gridSize="10" guides="1" tooltips="1" connect="1" arrows="1" fold="1" page="1" pageScale="1" pageWidth="827" pageHeight="1169" math="0" shadow="0">
      <root>
        <mxCell id="0" />
        <mxCell id="1" parent="0" />
        <mxCell id="zckFgupCJLoT4lIVxIVr-1" value="project _id" style="ellipse;whiteSpace=wrap;html=1;" parent="1" vertex="1">
          <mxGeometry x="160" y="-190" width="150" height="60" as="geometry" />
        </mxCell>
        <mxCell id="zckFgupCJLoT4lIVxIVr-4" value="Department_id" style="ellipse;whiteSpace=wrap;html=1;" parent="1" vertex="1">
          <mxGeometry x="150" y="195" width="120" height="50" as="geometry" />
        </mxCell>
        <mxCell id="zckFgupCJLoT4lIVxIVr-9" value="" style="endArrow=none;html=1;rounded=0;elbow=vertical;" parent="1" edge="1">
          <mxGeometry width="50" height="50" relative="1" as="geometry">
            <mxPoint x="170" y="230" as="sourcePoint" />
            <mxPoint x="250" y="230" as="targetPoint" />
            <Array as="points" />
          </mxGeometry>
        </mxCell>
        <mxCell id="zckFgupCJLoT4lIVxIVr-10" value="" style="endArrow=classic;html=1;rounded=0;exitX=0.75;exitY=0;exitDx=0;exitDy=0;entryX=0.445;entryY=0.965;entryDx=0;entryDy=0;entryPerimeter=0;" parent="1" source="zckFgupCJLoT4lIVxIVr-11" target="zckFgupCJLoT4lIVxIVr-4" edge="1">
          <mxGeometry width="50" height="50" relative="1" as="geometry">
            <mxPoint x="210.00221395244276" y="388.93777451645656" as="sourcePoint" />
            <mxPoint x="118.41" y="360" as="targetPoint" />
          </mxGeometry>
        </mxCell>
        <mxCell id="zckFgupCJLoT4lIVxIVr-11" value="Department_name" style="rounded=0;whiteSpace=wrap;html=1;" parent="1" vertex="1">
          <mxGeometry x="90" y="300" width="120" height="40" as="geometry" />
        </mxCell>
        <mxCell id="zckFgupCJLoT4lIVxIVr-16" style="edgeStyle=orthogonalEdgeStyle;rounded=0;orthogonalLoop=1;jettySize=auto;html=1;exitX=0.5;exitY=1;exitDx=0;exitDy=0;" parent="1" source="zckFgupCJLoT4lIVxIVr-11" target="zckFgupCJLoT4lIVxIVr-11" edge="1">
          <mxGeometry relative="1" as="geometry" />
        </mxCell>
        <mxCell id="zckFgupCJLoT4lIVxIVr-23" value="" style="endArrow=classic;html=1;rounded=0;entryX=0.248;entryY=0.948;entryDx=0;entryDy=0;entryPerimeter=0;exitX=0.75;exitY=0;exitDx=0;exitDy=0;" parent="1" source="zckFgupCJLoT4lIVxIVr-66" target="zckFgupCJLoT4lIVxIVr-62" edge="1">
          <mxGeometry width="50" height="50" relative="1" as="geometry">
            <mxPoint x="604" y="290" as="sourcePoint" />
            <mxPoint x="619.9999999999999" y="245.1799999999999" as="targetPoint" />
          </mxGeometry>
        </mxCell>
        <mxCell id="zckFgupCJLoT4lIVxIVr-24" value="" style="endArrow=classic;html=1;rounded=0;entryX=0.5;entryY=0;entryDx=0;entryDy=0;exitX=0.5;exitY=1;exitDx=0;exitDy=0;" parent="1" source="zckFgupCJLoT4lIVxIVr-66" target="zckFgupCJLoT4lIVxIVr-60" edge="1">
          <mxGeometry width="50" height="50" relative="1" as="geometry">
            <mxPoint x="560" y="350" as="sourcePoint" />
            <mxPoint x="547.5" y="400" as="targetPoint" />
          </mxGeometry>
        </mxCell>
        <mxCell id="zckFgupCJLoT4lIVxIVr-25" value="" style="endArrow=classic;html=1;rounded=0;entryX=0.74;entryY=0.113;entryDx=0;entryDy=0;exitX=0;exitY=1;exitDx=0;exitDy=0;entryPerimeter=0;" parent="1" target="zckFgupCJLoT4lIVxIVr-58" edge="1">
          <mxGeometry width="50" height="50" relative="1" as="geometry">
            <mxPoint x="521.5922139524432" y="341.06222548354344" as="sourcePoint" />
            <mxPoint x="440" y="400" as="targetPoint" />
          </mxGeometry>
        </mxCell>
        <mxCell id="zckFgupCJLoT4lIVxIVr-26" value="" style="endArrow=classic;html=1;rounded=0;entryX=-0.006;entryY=0.622;entryDx=0;entryDy=0;entryPerimeter=0;" parent="1" target="zckFgupCJLoT4lIVxIVr-61" edge="1">
          <mxGeometry width="50" height="50" relative="1" as="geometry">
            <mxPoint x="630" y="300" as="sourcePoint" />
            <mxPoint x="670" y="280" as="targetPoint" />
          </mxGeometry>
        </mxCell>
        <mxCell id="zckFgupCJLoT4lIVxIVr-27" value="" style="endArrow=classic;html=1;rounded=0;exitX=1;exitY=0.75;exitDx=0;exitDy=0;entryX=0.051;entryY=0.285;entryDx=0;entryDy=0;entryPerimeter=0;" parent="1" source="zckFgupCJLoT4lIVxIVr-66" target="zckFgupCJLoT4lIVxIVr-64" edge="1">
          <mxGeometry width="50" height="50" relative="1" as="geometry">
            <mxPoint x="647.0000000000002" y="330.67999999999984" as="sourcePoint" />
            <mxPoint x="690" y="340" as="targetPoint" />
            <Array as="points" />
          </mxGeometry>
        </mxCell>
        <mxCell id="zckFgupCJLoT4lIVxIVr-28" value="" style="endArrow=classic;html=1;rounded=0;exitX=1;exitY=1;exitDx=0;exitDy=0;entryX=0.428;entryY=-0.045;entryDx=0;entryDy=0;entryPerimeter=0;" parent="1" target="zckFgupCJLoT4lIVxIVr-59" edge="1">
          <mxGeometry width="50" height="50" relative="1" as="geometry">
            <mxPoint x="628.4077860475568" y="341.06222548354344" as="sourcePoint" />
            <mxPoint x="675" y="400" as="targetPoint" />
            <Array as="points" />
          </mxGeometry>
        </mxCell>
        <mxCell id="zckFgupCJLoT4lIVxIVr-31" value="project" style="rounded=0;whiteSpace=wrap;html=1;" parent="1" vertex="1">
          <mxGeometry x="160" y="-20" width="130" height="40" as="geometry" />
        </mxCell>
        <mxCell id="zckFgupCJLoT4lIVxIVr-42" value="" style="endArrow=classic;html=1;rounded=0;exitX=1;exitY=0.5;exitDx=0;exitDy=0;entryX=0;entryY=0.5;entryDx=0;entryDy=0;" parent="1" source="zckFgupCJLoT4lIVxIVr-116" target="zckFgupCJLoT4lIVxIVr-68" edge="1">
          <mxGeometry width="50" height="50" relative="1" as="geometry">
            <mxPoint x="500" y="120" as="sourcePoint" />
            <mxPoint x="561.7" y="-0.24000000000023647" as="targetPoint" />
          </mxGeometry>
        </mxCell>
        <mxCell id="zckFgupCJLoT4lIVxIVr-54" value="Department _name" style="ellipse;whiteSpace=wrap;html=1;" parent="1" vertex="1">
          <mxGeometry x="20" y="195" width="110" height="55" as="geometry" />
        </mxCell>
        <mxCell id="zckFgupCJLoT4lIVxIVr-57" value="" style="endArrow=classic;html=1;rounded=0;exitX=0.168;exitY=0.003;exitDx=0;exitDy=0;exitPerimeter=0;entryX=0.5;entryY=1;entryDx=0;entryDy=0;" parent="1" source="zckFgupCJLoT4lIVxIVr-11" target="zckFgupCJLoT4lIVxIVr-54" edge="1">
          <mxGeometry width="50" height="50" relative="1" as="geometry">
            <mxPoint x="370" y="190" as="sourcePoint" />
            <mxPoint x="420" y="140" as="targetPoint" />
          </mxGeometry>
        </mxCell>
        <mxCell id="zckFgupCJLoT4lIVxIVr-58" value="department_id&amp;nbsp;" style="ellipse;whiteSpace=wrap;html=1;" parent="1" vertex="1">
          <mxGeometry x="354" y="400" width="120" height="60" as="geometry" />
        </mxCell>
        <mxCell id="zckFgupCJLoT4lIVxIVr-59" value="job_title" style="ellipse;whiteSpace=wrap;html=1;" parent="1" vertex="1">
          <mxGeometry x="630" y="420" width="120" height="60" as="geometry" />
        </mxCell>
        <mxCell id="zckFgupCJLoT4lIVxIVr-60" value="name" style="ellipse;whiteSpace=wrap;html=1;" parent="1" vertex="1">
          <mxGeometry x="490" y="420" width="120" height="60" as="geometry" />
        </mxCell>
        <mxCell id="zckFgupCJLoT4lIVxIVr-61" value="birth_date&amp;nbsp;" style="ellipse;whiteSpace=wrap;html=1;" parent="1" vertex="1">
          <mxGeometry x="730" y="230" width="120" height="60" as="geometry" />
        </mxCell>
        <mxCell id="zckFgupCJLoT4lIVxIVr-62" value="Employee_id&amp;nbsp;" style="ellipse;whiteSpace=wrap;html=1;" parent="1" vertex="1">
          <mxGeometry x="650" y="160" width="120" height="60" as="geometry" />
        </mxCell>
        <mxCell id="zckFgupCJLoT4lIVxIVr-64" value="salary&amp;nbsp;" style="ellipse;whiteSpace=wrap;html=1;" parent="1" vertex="1">
          <mxGeometry x="710" y="340" width="120" height="60" as="geometry" />
        </mxCell>
        <mxCell id="zckFgupCJLoT4lIVxIVr-66" value="Employees&amp;nbsp;" style="rounded=0;whiteSpace=wrap;html=1;" parent="1" vertex="1">
          <mxGeometry x="490" y="295" width="140" height="50" as="geometry" />
        </mxCell>
        <mxCell id="zckFgupCJLoT4lIVxIVr-68" value="assigned_date" style="ellipse;whiteSpace=wrap;html=1;" parent="1" vertex="1">
          <mxGeometry x="730" y="10" width="120" height="60" as="geometry" />
        </mxCell>
        <mxCell id="zckFgupCJLoT4lIVxIVr-70" value="start_date" style="ellipse;whiteSpace=wrap;html=1;" parent="1" vertex="1">
          <mxGeometry x="310" y="-160" width="120" height="60" as="geometry" />
        </mxCell>
        <mxCell id="zckFgupCJLoT4lIVxIVr-71" value="Project_id" style="ellipse;whiteSpace=wrap;html=1;direction=west;" parent="1" vertex="1">
          <mxGeometry x="520" y="-70" width="120" height="60" as="geometry" />
        </mxCell>
        <mxCell id="zckFgupCJLoT4lIVxIVr-72" value="employee-id" style="ellipse;whiteSpace=wrap;html=1;" parent="1" vertex="1">
          <mxGeometry x="690" y="-90" width="120" height="60" as="geometry" />
        </mxCell>
        <mxCell id="zckFgupCJLoT4lIVxIVr-73" value="" style="endArrow=classic;html=1;rounded=0;exitX=0.25;exitY=0;exitDx=0;exitDy=0;entryX=0.5;entryY=0;entryDx=0;entryDy=0;" parent="1" target="zckFgupCJLoT4lIVxIVr-71" edge="1">
          <mxGeometry width="50" height="50" relative="1" as="geometry">
            <mxPoint x="414" y="120" as="sourcePoint" />
            <mxPoint x="621.5" y="-70" as="targetPoint" />
          </mxGeometry>
        </mxCell>
        <mxCell id="zckFgupCJLoT4lIVxIVr-76" value="" style="endArrow=classic;html=1;rounded=0;entryX=0.084;entryY=0.701;entryDx=0;entryDy=0;entryPerimeter=0;exitX=1;exitY=0;exitDx=0;exitDy=0;" parent="1" source="zckFgupCJLoT4lIVxIVr-116" target="zckFgupCJLoT4lIVxIVr-72" edge="1">
          <mxGeometry width="50" height="50" relative="1" as="geometry">
            <mxPoint x="500" y="100" as="sourcePoint" />
            <mxPoint x="570" y="30" as="targetPoint" />
          </mxGeometry>
        </mxCell>
        <mxCell id="zckFgupCJLoT4lIVxIVr-77" value="" style="endArrow=classic;html=1;rounded=0;entryX=0.45;entryY=1.005;entryDx=0;entryDy=0;entryPerimeter=0;exitX=0.75;exitY=0;exitDx=0;exitDy=0;" parent="1" source="zckFgupCJLoT4lIVxIVr-31" target="zckFgupCJLoT4lIVxIVr-1" edge="1">
          <mxGeometry width="50" height="50" relative="1" as="geometry">
            <mxPoint x="370" y="150" as="sourcePoint" />
            <mxPoint x="420" y="100" as="targetPoint" />
          </mxGeometry>
        </mxCell>
        <mxCell id="zckFgupCJLoT4lIVxIVr-78" value="budget" style="ellipse;whiteSpace=wrap;html=1;" parent="1" vertex="1">
          <mxGeometry x="50" y="-130" width="130" height="60" as="geometry" />
        </mxCell>
        <mxCell id="zckFgupCJLoT4lIVxIVr-79" value="end_date" style="ellipse;whiteSpace=wrap;html=1;" parent="1" vertex="1">
          <mxGeometry x="-10" y="-50" width="130" height="60" as="geometry" />
        </mxCell>
        <mxCell id="zckFgupCJLoT4lIVxIVr-80" value="" style="endArrow=classic;html=1;rounded=0;entryX=1;entryY=1;entryDx=0;entryDy=0;exitX=0.25;exitY=0;exitDx=0;exitDy=0;" parent="1" source="zckFgupCJLoT4lIVxIVr-31" target="zckFgupCJLoT4lIVxIVr-78" edge="1">
          <mxGeometry width="50" height="50" relative="1" as="geometry">
            <mxPoint x="480" y="60" as="sourcePoint" />
            <mxPoint x="530" y="10" as="targetPoint" />
          </mxGeometry>
        </mxCell>
        <mxCell id="zckFgupCJLoT4lIVxIVr-81" value="" style="endArrow=classic;html=1;rounded=0;entryX=1;entryY=0.5;entryDx=0;entryDy=0;exitX=0;exitY=0.25;exitDx=0;exitDy=0;" parent="1" source="zckFgupCJLoT4lIVxIVr-31" target="zckFgupCJLoT4lIVxIVr-79" edge="1">
          <mxGeometry width="50" height="50" relative="1" as="geometry">
            <mxPoint x="480" y="60" as="sourcePoint" />
            <mxPoint x="530" y="10" as="targetPoint" />
          </mxGeometry>
        </mxCell>
        <mxCell id="zckFgupCJLoT4lIVxIVr-82" value="" style="endArrow=none;html=1;rounded=0;exitX=0.234;exitY=0.781;exitDx=0;exitDy=0;exitPerimeter=0;entryX=0.69;entryY=0.808;entryDx=0;entryDy=0;entryPerimeter=0;" parent="1" source="zckFgupCJLoT4lIVxIVr-1" target="zckFgupCJLoT4lIVxIVr-1" edge="1">
          <mxGeometry width="50" height="50" relative="1" as="geometry">
            <mxPoint x="480" y="60" as="sourcePoint" />
            <mxPoint x="530" y="10" as="targetPoint" />
          </mxGeometry>
        </mxCell>
        <mxCell id="zckFgupCJLoT4lIVxIVr-86" value="" style="endArrow=classic;html=1;rounded=0;exitX=0.646;exitY=0.961;exitDx=0;exitDy=0;exitPerimeter=0;" parent="1" source="zckFgupCJLoT4lIVxIVr-60" edge="1">
          <mxGeometry width="50" height="50" relative="1" as="geometry">
            <mxPoint x="610" y="580" as="sourcePoint" />
            <mxPoint x="620" y="550" as="targetPoint" />
          </mxGeometry>
        </mxCell>
        <mxCell id="zckFgupCJLoT4lIVxIVr-87" value="" style="endArrow=classic;html=1;rounded=0;exitX=0.299;exitY=0.989;exitDx=0;exitDy=0;exitPerimeter=0;" parent="1" edge="1">
          <mxGeometry width="50" height="50" relative="1" as="geometry">
            <mxPoint x="515.8799999999997" y="469.9999999999997" as="sourcePoint" />
            <mxPoint x="490" y="550" as="targetPoint" />
          </mxGeometry>
        </mxCell>
        <mxCell id="zckFgupCJLoT4lIVxIVr-88" value="frist_name" style="ellipse;whiteSpace=wrap;html=1;" parent="1" vertex="1">
          <mxGeometry x="430" y="545" width="120" height="55" as="geometry" />
        </mxCell>
        <mxCell id="zckFgupCJLoT4lIVxIVr-89" value="second _name" style="ellipse;whiteSpace=wrap;html=1;" parent="1" vertex="1">
          <mxGeometry x="580" y="545" width="120" height="55" as="geometry" />
        </mxCell>
        <mxCell id="zckFgupCJLoT4lIVxIVr-90" value="" style="endArrow=none;html=1;rounded=0;exitX=0.833;exitY=0.667;exitDx=0;exitDy=0;exitPerimeter=0;entryX=0.167;entryY=0.667;entryDx=0;entryDy=0;entryPerimeter=0;" parent="1" source="zckFgupCJLoT4lIVxIVr-62" target="zckFgupCJLoT4lIVxIVr-62" edge="1">
          <mxGeometry width="50" height="50" relative="1" as="geometry">
            <mxPoint x="460" y="400" as="sourcePoint" />
            <mxPoint x="510" y="350" as="targetPoint" />
          </mxGeometry>
        </mxCell>
        <mxCell id="zckFgupCJLoT4lIVxIVr-99" value="belong to&amp;nbsp;" style="rhombus;whiteSpace=wrap;html=1;" parent="1" vertex="1">
          <mxGeometry x="300" y="280" width="90" height="80" as="geometry" />
        </mxCell>
        <mxCell id="zckFgupCJLoT4lIVxIVr-100" value="1" style="endArrow=none;html=1;rounded=0;exitX=1;exitY=0.5;exitDx=0;exitDy=0;entryX=0;entryY=0.5;entryDx=0;entryDy=0;" parent="1" source="zckFgupCJLoT4lIVxIVr-11" target="zckFgupCJLoT4lIVxIVr-99" edge="1">
          <mxGeometry width="50" height="50" relative="1" as="geometry">
            <mxPoint x="400" y="260" as="sourcePoint" />
            <mxPoint x="450" y="210" as="targetPoint" />
          </mxGeometry>
        </mxCell>
        <mxCell id="zckFgupCJLoT4lIVxIVr-102" value="m" style="endArrow=none;html=1;rounded=0;entryX=0;entryY=0.5;entryDx=0;entryDy=0;exitX=1;exitY=0.5;exitDx=0;exitDy=0;" parent="1" source="zckFgupCJLoT4lIVxIVr-99" target="zckFgupCJLoT4lIVxIVr-66" edge="1">
          <mxGeometry width="50" height="50" relative="1" as="geometry">
            <mxPoint x="400" y="260" as="sourcePoint" />
            <mxPoint x="450" y="210" as="targetPoint" />
          </mxGeometry>
        </mxCell>
        <mxCell id="zckFgupCJLoT4lIVxIVr-103" value="" style="endArrow=none;html=1;rounded=0;entryX=0;entryY=0.75;entryDx=0;entryDy=0;" parent="1" target="zckFgupCJLoT4lIVxIVr-66" edge="1">
          <mxGeometry width="50" height="50" relative="1" as="geometry">
            <mxPoint x="380" y="330" as="sourcePoint" />
            <mxPoint x="450" y="210" as="targetPoint" />
          </mxGeometry>
        </mxCell>
        <mxCell id="zckFgupCJLoT4lIVxIVr-107" value="m" style="endArrow=none;html=1;rounded=0;entryX=0;entryY=0;entryDx=0;entryDy=0;exitX=1;exitY=0.5;exitDx=0;exitDy=0;" parent="1" source="zckFgupCJLoT4lIVxIVr-31" target="zckFgupCJLoT4lIVxIVr-116" edge="1">
          <mxGeometry width="50" height="50" relative="1" as="geometry">
            <mxPoint x="400" y="280" as="sourcePoint" />
            <mxPoint x="402.5" y="100" as="targetPoint" />
          </mxGeometry>
        </mxCell>
        <mxCell id="zckFgupCJLoT4lIVxIVr-110" value="m" style="endArrow=none;html=1;rounded=0;exitX=0.673;exitY=-0.03;exitDx=0;exitDy=0;exitPerimeter=0;entryX=1;entryY=1;entryDx=0;entryDy=0;" parent="1" source="zckFgupCJLoT4lIVxIVr-66" target="zckFgupCJLoT4lIVxIVr-116" edge="1">
          <mxGeometry width="50" height="50" relative="1" as="geometry">
            <mxPoint x="560" y="90" as="sourcePoint" />
            <mxPoint x="485.0499999999997" y="141" as="targetPoint" />
          </mxGeometry>
        </mxCell>
        <mxCell id="zckFgupCJLoT4lIVxIVr-116" value="employees project&amp;nbsp;" style="rhombus;whiteSpace=wrap;html=1;" parent="1" vertex="1">
          <mxGeometry x="400" y="90" width="80" height="80" as="geometry" />
        </mxCell>
        <mxCell id="zckFgupCJLoT4lIVxIVr-117" value="" style="endArrow=none;html=1;rounded=0;entryX=1;entryY=1;entryDx=0;entryDy=0;exitX=0.167;exitY=0.419;exitDx=0;exitDy=0;exitPerimeter=0;" parent="1" source="zckFgupCJLoT4lIVxIVr-116" target="zckFgupCJLoT4lIVxIVr-31" edge="1">
          <mxGeometry width="50" height="50" relative="1" as="geometry">
            <mxPoint x="560" y="90" as="sourcePoint" />
            <mxPoint x="610" y="40" as="targetPoint" />
          </mxGeometry>
        </mxCell>
        <mxCell id="zckFgupCJLoT4lIVxIVr-121" value="" style="endArrow=classic;html=1;rounded=0;entryX=0.347;entryY=1.086;entryDx=0;entryDy=0;entryPerimeter=0;exitX=0.891;exitY=0.15;exitDx=0;exitDy=0;exitPerimeter=0;" parent="1" source="zckFgupCJLoT4lIVxIVr-31" target="zckFgupCJLoT4lIVxIVr-70" edge="1">
          <mxGeometry width="50" height="50" relative="1" as="geometry">
            <mxPoint x="450" y="110" as="sourcePoint" />
            <mxPoint x="500" y="60" as="targetPoint" />
          </mxGeometry>
        </mxCell>
        <mxCell id="zckFgupCJLoT4lIVxIVr-124" value="" style="endArrow=none;dashed=1;html=1;dashPattern=1 3;strokeWidth=2;rounded=0;entryX=0.217;entryY=0.667;entryDx=0;entryDy=0;entryPerimeter=0;" parent="1" target="zckFgupCJLoT4lIVxIVr-58" edge="1">
          <mxGeometry width="50" height="50" relative="1" as="geometry">
            <mxPoint x="450" y="440" as="sourcePoint" />
            <mxPoint x="480" y="180" as="targetPoint" />
          </mxGeometry>
        </mxCell>
        <mxCell id="zckFgupCJLoT4lIVxIVr-125" value="" style="endArrow=none;dashed=1;html=1;dashPattern=1 3;strokeWidth=2;rounded=0;" parent="1" edge="1">
          <mxGeometry width="50" height="50" relative="1" as="geometry">
            <mxPoint x="540" y="-30" as="sourcePoint" />
            <mxPoint x="620" y="-30" as="targetPoint" />
          </mxGeometry>
        </mxCell>
        <mxCell id="zckFgupCJLoT4lIVxIVr-126" value="" style="endArrow=none;dashed=1;html=1;dashPattern=1 3;strokeWidth=2;rounded=0;entryX=0.25;entryY=0.667;entryDx=0;entryDy=0;entryPerimeter=0;" parent="1" target="zckFgupCJLoT4lIVxIVr-72" edge="1">
          <mxGeometry width="50" height="50" relative="1" as="geometry">
            <mxPoint x="780" y="-50" as="sourcePoint" />
            <mxPoint x="480" y="80" as="targetPoint" />
          </mxGeometry>
        </mxCell>
      </root>
    </mxGraphModel>
  </diagram>
</mxfile>
